<?xml version="1.0" standalone="no"?>
<!DOCTYPE svg PUBLIC "-//W3C//DTD SVG 20010904//EN"
 "http://www.w3.org/TR/2001/REC-SVG-20010904/DTD/svg10.dtd">
<svg version="1.0" xmlns="http://www.w3.org/2000/svg"
 width="700.000000pt" height="700.000000pt" viewBox="0 0 700.000000 700.000000"
 preserveAspectRatio="xMidYMid meet">
<metadata>
Created by potrace 1.14, written by Peter Selinger 2001-2017
</metadata>
<g transform="translate(0.000000,700.000000) scale(0.100000,-0.100000)"
fill="#000000" stroke="none">
<path d="M3209 6749 c-24 -24 -24 -41 -1 -62 20 -18 42 -17 65 2 12 9 13 18 6
41 -13 36 -44 45 -70 19z"/>
<path d="M4019 6751 c-112 -44 -178 -136 -181 -252 -2 -125 64 -208 215 -268
38 -15 133 -13 180 3 148 53 221 235 152 380 -59 124 -232 189 -366 137z m207
-30 c214 -97 129 -470 -108 -471 -58 0 -86 10 -131 49 -100 89 -104 258 -8
360 72 76 165 99 247 62z"/>
<path d="M3069 6758 c0 -2 -3 -14 -5 -28 -2 -13 -11 -34 -19 -46 -16 -25 -9
-39 12 -22 24 20 31 -3 38 -126 6 -126 20 -176 57 -206 20 -16 60 -31 93 -35
47 -5 130 59 144 112 20 72 -13 159 -76 200 -36 24 -116 22 -143 -2 -16 -14
-20 -15 -21 -4 -4 76 -11 106 -27 128 -16 22 -50 41 -53 29z m213 -185 c69
-62 62 -222 -11 -240 -57 -14 -111 54 -111 140 0 104 62 155 122 100z"/>
<path d="M2759 6536 c-69 -25 -109 -84 -104 -153 8 -109 112 -170 220 -128 60
22 89 70 88 143 -2 109 -101 176 -204 138z m107 -46 c60 -57 52 -187 -14 -216
-67 -29 -151 57 -138 143 3 21 5 41 6 45 0 4 12 19 28 33 33 31 81 29 118 -5z"/>
<path d="M2372 6433 c-98 -34 -125 -77 -102 -165 30 -108 91 -146 177 -108 23
10 43 23 43 28 0 6 17 8 39 5 33 -5 42 -1 65 23 41 45 31 56 -15 17 -35 -30
-56 -1 -104 145 -14 45 -27 82 -28 81 -1 0 -35 -12 -75 -26z m71 -127 c33
-116 19 -145 -57 -116 -33 12 -66 78 -66 132 0 51 6 62 45 82 40 21 48 11 78
-98z"/>
<path d="M4567 6370 c-9 -11 -25 -20 -34 -20 -15 0 -15 -3 4 -18 l23 -17 -40
-104 c-22 -58 -38 -106 -37 -108 2 -1 13 -4 26 -5 20 -3 27 10 66 112 47 121
52 149 33 168 -16 16 -21 15 -41 -8z"/>
<path d="M1454 6261 c-132 -93 -184 -167 -186 -265 -2 -96 73 -215 159 -251
53 -22 125 -26 178 -11 43 14 119 67 157 111 20 23 53 103 46 110 -10 10 -38
-7 -38 -24 0 -27 -43 -88 -80 -116 -76 -56 -165 -57 -247 -2 -118 79 -142 269
-45 370 27 29 104 57 155 57 l29 0 -21 32 c-11 18 -24 34 -29 36 -4 1 -39 -20
-78 -47z"/>
<path d="M1946 6278 c-28 -16 -68 -36 -89 -45 l-37 -16 38 -32 c32 -28 88
-121 97 -159 14 -69 18 -72 59 -56 l26 10 -27 50 c-15 27 -24 52 -21 56 4 3
27 -4 53 -15 90 -40 161 -36 186 10 11 22 9 23 -25 7 -21 -9 -39 -7 -98 13
-40 13 -75 25 -77 26 -2 1 11 17 28 35 39 41 48 81 27 113 -9 14 -22 26 -29
26 -6 1 -23 3 -36 4 -13 1 -46 -11 -75 -27z m94 -52 c0 -26 -50 -106 -66 -106
-6 0 -22 20 -35 45 -29 54 -21 75 37 91 45 13 64 4 64 -30z"/>
<path d="M4770 6270 c-36 -36 -23 -80 40 -140 56 -53 65 -75 40 -100 -27 -27
-61 -25 -95 5 -21 21 -26 31 -20 53 4 15 13 31 21 35 25 14 15 23 -30 25 l-45
2 4 -40 c4 -46 15 -67 47 -96 59 -54 165 -50 183 7 12 36 -3 63 -54 103 -64
51 -78 79 -51 106 26 26 64 26 90 0 25 -25 25 -41 -1 -74 l-21 -27 43 3 c41 3
44 5 47 33 1 17 -6 44 -18 63 -36 59 -139 83 -180 42z"/>
<path d="M5172 6220 c-12 -10 -28 -20 -35 -23 -9 -3 -9 -8 2 -20 14 -18 38
-16 100 10 31 13 32 15 15 27 -35 24 -58 26 -82 6z"/>
<path d="M5125 6114 c-8 -13 -18 -17 -54 -23 -3 -1 4 -7 14 -15 18 -13 16 -18
-42 -112 -44 -72 -58 -102 -51 -111 24 -29 32 -22 106 102 74 122 75 124 57
151 -18 28 -17 28 -30 8z"/>
<path d="M3251 6024 c-22 -16 -29 -68 -11 -79 21 -13 8 -22 -35 -23 -25 -1
-62 -4 -83 -7 -36 -4 -41 -2 -63 33 -25 38 -60 51 -88 33 -13 -9 -19 -52 -10
-80 2 -8 -10 -18 -35 -27 -70 -25 -94 -65 -63 -105 21 -27 45 -29 108 -10 l60
19 30 -46 c16 -25 29 -50 29 -54 0 -5 12 -13 26 -19 20 -7 32 -6 50 6 29 19
30 44 4 95 -15 29 -17 40 -8 40 7 1 45 3 84 6 l70 6 34 -56 c30 -49 38 -56 65
-56 46 0 65 37 42 85 l-16 35 74 -3 c41 -2 76 -5 78 -8 2 -2 12 -26 21 -54 20
-55 39 -75 71 -75 40 0 54 55 30 114 -5 12 -5 17 1 13 5 -3 30 -8 54 -11 119
-16 121 -17 131 -44 37 -104 62 -126 107 -96 21 14 24 22 19 54 l-5 38 75 -23
c41 -13 76 -25 79 -27 2 -3 0 -18 -5 -34 -11 -39 -5 -83 25 -184 27 -89 91
-219 127 -258 16 -17 30 -22 57 -20 29 2 38 9 52 38 22 45 28 157 13 231 -14
65 -14 103 0 106 6 1 33 -10 61 -24 50 -25 51 -26 38 -52 -16 -30 -18 -120 -5
-171 6 -19 12 -48 15 -65 15 -94 70 -221 107 -243 24 -15 60 5 77 43 24 53 53
189 50 237 -3 58 7 68 40 39 22 -18 22 -19 6 -82 -28 -107 -20 -248 20 -342
20 -49 32 -52 76 -23 44 29 80 85 105 166 10 30 19 58 22 62 2 4 20 -10 39
-32 l35 -39 -25 -38 c-34 -51 -47 -119 -45 -228 2 -99 16 -147 47 -164 16 -8
27 -5 59 18 40 29 104 115 123 167 l11 29 38 -60 38 -59 -47 -47 c-39 -39 -50
-59 -64 -113 -9 -36 -16 -96 -16 -134 0 -204 97 -195 244 22 12 17 15 13 38
-45 l26 -63 -40 -18 c-86 -39 -157 -146 -174 -265 -16 -108 -4 -143 49 -143
51 0 112 37 174 105 31 36 60 61 64 57 4 -4 10 -24 13 -45 l7 -38 -57 -25
c-31 -14 -71 -40 -89 -58 -66 -69 -166 -223 -186 -289 -18 -62 30 -98 101 -73
49 17 169 88 220 131 23 19 43 35 45 35 2 0 3 -19 3 -43 0 -42 -1 -44 -41 -54
-89 -24 -250 -152 -287 -227 -53 -111 29 -136 212 -66 113 44 110 45 94 -50
-3 -14 -5 -30 -5 -36 -1 -7 -25 -11 -69 -10 -58 1 -77 -4 -136 -33 -79 -39
-189 -141 -200 -185 -21 -87 114 -99 327 -29 15 5 14 -4 -11 -73 -23 -65 -31
-79 -47 -77 -106 13 -167 7 -235 -24 -65 -30 -169 -108 -184 -137 -19 -39 -4
-82 37 -102 37 -20 140 -20 215 0 29 7 54 10 57 6 2 -3 -14 -36 -37 -73 l-40
-67 -27 18 c-62 43 -197 55 -287 26 -142 -46 -188 -88 -158 -145 27 -53 94
-78 232 -85 47 -2 87 -6 89 -7 5 -6 -90 -115 -106 -121 -7 -4 -19 -2 -25 2
-14 11 -94 42 -121 48 -116 25 -255 24 -341 -1 -88 -25 -102 -60 -49 -116 42
-43 113 -75 220 -99 55 -13 102 -25 105 -27 5 -4 -23 -28 -67 -60 -22 -14 -25
-13 -60 17 -121 106 -401 144 -429 58 -7 -24 19 -69 60 -106 44 -38 134 -97
164 -106 34 -11 26 -24 -32 -53 l-54 -26 -31 36 c-70 79 -247 167 -337 167
-54 0 -89 -28 -78 -63 21 -69 104 -177 178 -230 12 -9 15 -16 9 -20 -12 -7
-134 -47 -145 -47 -3 0 -12 17 -19 37 -15 48 -129 161 -193 192 -64 31 -166
40 -201 17 -53 -35 -17 -152 76 -247 27 -28 49 -51 49 -53 0 -2 -25 -4 -115
-9 -29 -2 -30 0 -35 48 -6 56 -29 106 -69 145 -45 45 -122 100 -182 131 -99
49 -132 36 -131 -54 0 -61 28 -138 77 -210 19 -28 35 -56 35 -60 0 -9 -126 -5
-134 4 -2 2 -7 24 -11 48 -15 104 -73 214 -166 315 -65 71 -125 108 -161 98
-27 -7 -47 -56 -41 -101 10 -74 43 -201 67 -253 13 -29 22 -56 20 -60 -2 -3
-23 -1 -45 5 l-41 12 -3 60 c-10 203 -121 403 -210 381 -51 -13 -76 -165 -48
-290 7 -33 12 -63 11 -67 -4 -10 -114 38 -111 48 1 4 9 26 17 48 36 102 29
161 -39 300 -70 146 -95 167 -148 125 -53 -42 -86 -197 -65 -308 4 -25 7 -47
5 -49 -3 -3 -133 81 -151 97 -4 5 4 34 20 66 22 46 28 71 28 123 -1 118 -31
232 -80 303 -40 57 -61 59 -106 9 -52 -59 -72 -126 -70 -234 1 -48 -1 -87 -3
-87 -6 0 -62 55 -108 106 l-37 42 35 21 c66 39 105 135 111 272 4 99 -7 150
-43 197 -30 40 -52 37 -101 -14 -53 -54 -98 -138 -117 -215 -10 -41 -22 -68
-29 -66 -6 2 -32 38 -58 80 l-48 77 28 14 c71 37 125 126 148 243 34 180 4
259 -84 214 -56 -28 -112 -91 -159 -177 -46 -85 -44 -85 -79 15 -17 47 -17 55
-4 59 29 9 139 130 165 183 59 115 82 228 53 257 -43 43 -193 -38 -269 -143
-18 -25 -34 -44 -35 -42 -2 1 -6 18 -9 37 -3 19 -8 43 -11 52 -4 14 8 24 51
44 68 33 146 107 178 171 26 50 56 132 63 170 10 51 -59 68 -138 34 -47 -20
-136 -84 -156 -113 -25 -35 -33 -19 -30 60 l3 77 30 3 c116 12 198 67 284 192
49 71 56 93 36 114 -18 17 -24 18 -100 18 -89 -1 -160 -26 -214 -75 l-23 -22
6 40 c3 22 5 47 6 56 0 12 13 18 53 22 64 6 161 47 247 103 70 45 109 84 134
132 14 28 14 32 -3 54 -18 21 -26 23 -98 21 -55 -1 -105 -10 -170 -31 -51 -16
-94 -28 -96 -26 -2 3 1 20 7 38 10 34 11 34 61 29 58 -6 113 15 222 86 116 75
211 180 198 220 -11 36 -110 38 -242 5 -32 -8 -69 -18 -82 -21 l-24 -6 20 34
c12 19 30 49 41 67 17 28 21 31 34 19 60 -60 224 -39 415 53 61 30 87 48 98
71 21 39 14 47 -76 89 -75 34 -159 43 -243 26 l-39 -8 18 29 c10 15 35 45 57
66 l38 39 33 -20 c56 -35 176 -46 304 -28 88 13 123 27 129 53 11 44 -27 70
-189 128 -43 15 -80 32 -83 37 -3 5 5 17 18 28 24 20 48 26 48 11 0 -16 81
-61 153 -85 85 -28 165 -40 257 -39 54 1 67 5 82 23 38 46 12 103 -79 174 -44
35 -73 49 -130 62 -40 10 -73 21 -73 26 0 10 2 11 85 13 43 1 84 8 108 20 47
22 134 99 151 134 11 24 12 32 8 67 -3 22 -61 37 -125 32 -72 -6 -160 -49
-220 -106 l-38 -37 7 88 c5 72 3 92 -11 113 -49 76 -133 35 -203 -100 -22 -44
-26 -63 -26 -147 l-1 -95 -38 -33 c-21 -19 -40 -32 -42 -29 -2 2 -5 31 -6 64
-4 106 -35 164 -90 164 -96 0 -165 -225 -114 -373 10 -30 11 -45 3 -54 -23
-28 -36 -13 -48 55 -12 72 -41 125 -77 141 -48 22 -106 -23 -119 -93 -2 -11
-7 -41 -12 -66 -13 -68 -4 -136 27 -214 26 -66 27 -72 12 -93 -21 -30 -29 -29
-37 5 -18 71 -76 147 -122 159 -114 28 -155 -166 -69 -330 10 -20 23 -39 27
-42 17 -11 37 -63 29 -76 -4 -7 -9 -11 -11 -9 -2 3 -27 41 -56 85 -59 91 -79
108 -124 100 -42 -8 -48 -12 -64 -51 -36 -86 6 -224 98 -319 46 -49 48 -52 37
-83 -6 -18 -14 -32 -17 -32 -4 0 -20 21 -37 47 -61 97 -118 138 -174 127 -55
-11 -72 -108 -37 -215 30 -92 67 -144 126 -177 35 -19 50 -33 50 -48 0 -36 -9
-33 -63 17 -29 27 -74 60 -101 74 -110 55 -155 18 -132 -107 14 -74 31 -106
88 -161 36 -36 127 -87 156 -87 8 0 12 -17 12 -50 0 -27 -4 -50 -8 -50 -5 0
-21 14 -37 30 -77 80 -167 111 -214 73 -84 -69 30 -270 198 -350 54 -26 78
-53 65 -74 -3 -5 -32 12 -65 36 -69 51 -112 66 -160 56 -56 -11 -76 -83 -41
-147 31 -56 76 -111 107 -131 31 -20 126 -57 176 -67 21 -5 29 -14 37 -46 6
-26 6 -40 0 -40 -5 0 -40 13 -78 30 -109 48 -161 46 -192 -8 -13 -23 -14 -34
-3 -75 17 -68 75 -129 163 -173 56 -28 90 -36 162 -38 38 -1 45 -4 48 -23 3
-22 2 -22 -30 -9 -49 19 -141 20 -177 1 -25 -13 -31 -22 -31 -50 0 -51 15 -81
69 -135 39 -39 62 -53 117 -69 38 -11 97 -22 132 -25 35 -2 65 -6 66 -8 1 -1
9 -15 18 -29 l17 -26 -82 2 c-89 2 -120 -5 -155 -37 -82 -77 91 -223 252 -212
33 3 78 9 100 15 37 10 40 9 62 -18 l22 -28 -71 -7 c-95 -9 -138 -23 -170 -52
-33 -30 -35 -67 -6 -107 37 -52 121 -80 239 -80 75 0 99 4 142 26 43 21 55 19
91 -15 l32 -30 -29 0 c-47 0 -149 -30 -187 -55 -64 -42 -54 -115 23 -160 68
-40 277 -14 357 44 23 17 26 17 53 2 15 -9 27 -20 25 -24 -1 -5 -29 -18 -62
-29 -152 -51 -172 -137 -45 -194 49 -22 66 -25 137 -25 67 1 121 18 196 64
l48 29 45 -19 46 -20 -54 -31 c-63 -37 -77 -48 -105 -85 -52 -68 29 -139 150
-132 76 5 149 40 219 104 47 43 56 47 78 39 14 -6 39 -12 55 -15 50 -8 49 -18
-7 -63 -60 -48 -88 -86 -92 -127 -7 -82 51 -105 173 -68 74 22 126 58 178 125
24 30 48 61 54 68 6 7 14 10 18 8 4 -3 26 -6 49 -7 23 -2 42 -6 42 -9 0 -3
-23 -28 -51 -55 -54 -53 -86 -107 -84 -140 6 -71 40 -92 118 -75 99 21 201
107 253 213 25 51 30 55 68 60 22 3 43 4 45 1 2 -2 -16 -24 -42 -48 -57 -55
-77 -94 -84 -160 -17 -168 181 -118 309 79 21 32 45 83 54 111 16 56 12 53
108 70 l39 7 -24 -34 c-13 -19 -27 -36 -30 -39 -18 -14 -69 -127 -69 -151 0
-73 50 -111 116 -87 54 19 126 88 161 155 33 63 40 87 49 161 3 26 8 49 10 52
9 9 83 28 88 22 3 -2 -11 -33 -30 -68 -43 -78 -55 -154 -30 -202 9 -18 20 -32
24 -33 4 0 14 -2 23 -4 25 -5 94 36 144 83 24 24 59 74 77 110 28 58 33 78 33
146 l0 78 49 25 49 25 -8 -49 c-5 -26 -9 -59 -10 -72 -2 -36 21 -139 35 -156
43 -51 155 49 199 178 18 52 22 168 8 212 -6 16 4 29 47 63 30 23 59 42 64 42
5 0 10 -26 11 -59 4 -125 9 -160 27 -191 31 -51 83 -52 129 -2 67 72 94 293
48 393 l-21 46 44 43 c24 23 44 41 45 39 0 -2 2 -17 4 -34 9 -84 44 -178 76
-206 12 -10 25 -19 28 -20 3 0 14 -2 24 -4 35 -7 78 46 97 119 26 106 1 220
-68 306 l-20 25 30 43 c16 24 31 42 33 40 2 -2 6 -25 9 -51 13 -96 66 -192
122 -223 30 -16 32 -16 56 2 36 27 58 96 59 185 1 91 -19 139 -90 219 l-49 54
27 56 c14 30 27 57 29 60 5 8 21 -23 38 -75 37 -112 59 -147 112 -174 50 -26
84 30 83 141 -1 132 -23 199 -86 258 -43 41 -57 72 -49 106 9 34 18 30 40 -18
21 -48 93 -124 130 -138 31 -12 67 4 85 38 23 42 16 161 -14 226 -24 52 -111
152 -150 173 -16 8 -17 17 -10 68 l8 58 40 -54 c46 -61 91 -91 145 -95 75 -6
102 56 68 155 -43 127 -111 205 -210 241 -26 9 -28 13 -26 65 1 30 4 55 6 55
2 0 21 -13 41 -29 88 -69 185 -93 214 -51 27 39 2 133 -57 213 -32 43 -108 94
-172 115 -52 17 -57 21 -60 50 -5 42 6 41 91 -9 162 -96 230 -47 149 108 -19
37 -45 78 -57 91 -41 44 -157 89 -233 92 -7 0 -15 11 -18 24 -3 13 -9 31 -12
40 -7 18 6 15 92 -25 71 -32 138 -39 177 -20 58 29 46 87 -34 169 -70 71 -156
106 -257 104 l-62 -1 -25 51 c-14 29 -25 55 -25 59 0 4 18 0 41 -7 71 -25 191
-42 222 -31 65 22 59 86 -14 151 -74 67 -148 100 -223 100 -33 0 -80 -4 -103
-7 -39 -7 -42 -5 -62 27 -22 34 -27 51 -13 43 19 -13 163 -18 195 -8 50 17 80
52 71 85 -8 34 -65 83 -134 114 -48 22 -68 26 -148 24 -58 -1 -105 -7 -122
-16 -28 -13 -30 -13 -65 26 -21 22 -35 41 -34 43 2 2 24 6 49 10 82 11 123 26
152 55 48 49 33 95 -46 139 -55 31 -177 40 -231 16 -81 -35 -124 -45 -137 -32
-7 7 -28 23 -45 36 -18 12 -33 25 -33 29 0 4 28 15 63 25 34 10 83 34 110 53
40 29 47 39 47 68 0 53 -61 93 -151 99 -68 4 -123 -12 -211 -63 l-69 -40 -60
31 c-32 17 -59 34 -59 38 0 3 32 26 70 50 57 36 72 52 81 80 17 57 -1 89 -53
98 -104 17 -226 -4 -268 -47 -16 -16 -92 -60 -104 -60 -8 0 -45 11 -83 24 -37
13 -100 31 -139 41 l-72 17 -21 59 c-22 60 -48 80 -86 65 -23 -9 -37 -53 -24
-78 12 -22 23 -22 -129 -3 -43 5 -49 10 -57 45 -9 39 -42 80 -66 80 -10 0 -28
-9 -39 -20 -18 -18 -20 -35 -5 -72 7 -16 -1 -18 -84 -18 l-91 0 -19 38 c-31
60 -66 80 -100 56z"/>
<path d="M5236 6011 c7 -34 -2 -52 -72 -147 -51 -70 -53 -72 -34 -89 18 -16
20 -15 47 22 95 132 148 161 197 108 32 -34 25 -58 -45 -150 -32 -43 -59 -81
-59 -83 0 -3 8 -10 17 -17 15 -11 25 -3 80 63 37 45 65 90 69 109 13 70 -34
127 -103 125 -34 -1 -36 0 -20 12 17 13 16 15 -10 34 -15 10 -38 24 -50 31
-21 11 -22 10 -17 -18z"/>
<path d="M2654 4844 c-74 -36 -79 -142 -10 -188 64 -41 144 -9 163 65 12 48 6
72 -27 104 -33 32 -84 39 -126 19z"/>
<path d="M4182 4843 c-63 -31 -75 -124 -21 -174 82 -77 211 8 174 114 -13 39
-38 65 -65 68 -8 1 -25 3 -37 4 -12 1 -35 -4 -51 -12z"/>
<path d="M3398 4665 c-1 -1 -32 -6 -68 -9 -129 -14 -297 -68 -375 -121 -16
-11 -47 -36 -69 -56 l-39 -37 -24 29 c-47 56 -133 91 -171 70 -14 -8 -17 -27
-18 -113 -1 -57 -5 -371 -8 -698 -4 -327 -8 -666 -10 -752 -4 -176 -10 -162
64 -160 83 1 81 0 80 35 -3 112 10 1332 15 1376 2 30 7 57 10 60 6 6 153 -144
330 -335 55 -59 112 -121 126 -136 15 -16 53 -58 85 -95 33 -37 64 -71 69 -77
6 -6 41 -47 80 -91 38 -44 72 -82 75 -85 3 -3 73 -84 155 -180 82 -96 158
-184 168 -195 43 -46 41 -51 -25 -118 -103 -103 -216 -137 -438 -132 -205 5
-413 57 -534 136 -33 21 -61 37 -63 35 -6 -6 -9 -156 -3 -165 7 -13 147 -77
201 -92 24 -7 49 -14 54 -15 14 -5 104 -24 140 -30 17 -3 93 -7 170 -9 270 -7
485 50 627 167 26 21 50 38 55 38 4 0 21 -18 36 -40 16 -22 42 -47 59 -56 31
-16 106 -26 112 -15 6 9 18 827 20 1301 l1 424 -58 1 c-32 1 -60 -3 -63 -7 -3
-5 -8 -170 -10 -366 -3 -196 -6 -406 -8 -467 -3 -60 -5 -226 -6 -367 -1 -147
-6 -258 -11 -258 -16 0 -368 364 -589 610 -41 45 -82 90 -90 99 -9 9 -45 50
-80 91 -36 41 -67 77 -70 80 -17 16 -167 199 -228 279 l-72 94 27 35 c42 55
83 90 143 118 95 46 146 56 305 59 127 3 167 0 260 -20 99 -21 194 -49 250
-74 11 -5 32 -13 46 -19 l26 -10 -2 70 c-1 56 -5 73 -20 84 -39 29 -194 79
-305 99 -36 7 -326 16 -332 10z m-514 -349 c85 -88 321 -338 392 -415 32 -35
73 -79 89 -97 17 -17 43 -47 59 -65 16 -19 52 -59 80 -89 57 -62 212 -233 236
-260 80 -91 178 -198 240 -260 90 -89 124 -132 146 -185 15 -36 15 -38 -1 -25
-18 15 -221 221 -276 281 -181 195 -234 252 -280 303 -30 32 -65 71 -79 86
-14 15 -53 58 -86 96 -34 38 -77 85 -95 105 -19 19 -63 68 -99 109 -36 40
-120 130 -186 199 -131 136 -156 165 -197 226 -54 79 -24 75 57 -9z"/>
<path d="M6284 2715 l-1 -73 32 14 c36 15 45 9 94 -63 75 -109 240 -114 291
-9 21 44 27 106 10 106 -5 0 -10 -9 -10 -20 0 -55 -61 -100 -136 -100 -62 0
-119 34 -163 97 -40 57 -80 102 -101 113 -13 7 -15 -3 -16 -65z"/>
<path d="M533 2709 c-144 -19 -238 -144 -208 -279 17 -80 98 -190 139 -190 28
0 25 28 -4 40 -56 23 -101 97 -102 169 0 44 29 106 69 142 84 79 250 64 321
-29 24 -31 27 -44 27 -108 l-1 -72 35 14 c19 8 36 16 37 17 1 1 -15 40 -34 87
-28 65 -49 98 -91 141 -64 63 -106 79 -188 68z"/>
<path d="M6342 2444 c-78 -55 -64 -177 28 -225 122 -65 260 54 195 168 l-16
28 6 -38 c14 -88 -84 -146 -177 -104 l-27 12 39 80 c22 44 40 83 40 88 0 13
-65 7 -88 -9z m14 -100 l-24 -48 -13 27 c-10 22 -10 32 1 52 13 25 39 37 53
25 4 -4 -3 -29 -17 -56z"/>
<path d="M3098 2335 c-62 -56 -66 -83 -8 -50 14 8 27 14 30 15 3 0 5 -49 5
-109 -1 -98 1 -110 17 -114 15 -4 18 1 19 36 2 126 -1 251 -8 258 -5 4 -29
-12 -55 -36z"/>
<path d="M3221 2352 c-67 -56 -29 -172 58 -172 9 0 26 7 37 15 28 21 33 18 28
-12 -7 -39 -29 -70 -56 -79 -16 -5 -27 0 -44 20 -23 25 -54 35 -54 17 0 -6 11
-22 23 -37 19 -21 32 -27 61 -26 71 3 109 56 108 151 -1 95 -28 137 -94 145
-28 4 -42 -1 -67 -22z m110 -34 c6 -10 9 -33 7 -50 -2 -25 -10 -34 -35 -44
-28 -12 -34 -11 -57 7 -14 11 -26 29 -26 40 0 66 82 101 111 47z"/>
<path d="M3473 2369 c-41 -15 -58 -56 -58 -139 1 -45 6 -87 15 -104 30 -59
119 -64 155 -9 35 52 25 202 -15 238 -21 19 -67 26 -97 14z m79 -53 c23 -28
25 -152 3 -183 -22 -31 -52 -35 -81 -10 -22 19 -25 30 -25 84 -1 128 47 178
103 109z"/>
<path d="M3757 2366 c-3 -6 -32 -47 -64 -91 -59 -78 -83 -124 -66 -126 4 0 35
-1 68 -2 57 -2 60 -3 61 -28 2 -57 40 -63 40 -6 -1 26 3 33 21 35 26 4 20 32
-7 32 -15 0 -17 11 -16 94 1 82 -1 95 -16 99 -9 3 -19 0 -21 -7z m1 -126 l1
-60 -45 0 c-24 0 -44 3 -44 6 0 7 39 64 57 82 7 7 13 18 13 23 0 5 4 9 8 9 5
0 9 -27 10 -60z"/>
<path d="M717 2215 c-10 -14 -28 -25 -40 -25 -43 0 -98 -22 -132 -52 -28 -24
-35 -37 -35 -67 0 -45 28 -91 66 -111 16 -8 31 -16 33 -17 2 -1 -1 -9 -7 -16
-9 -10 -8 -18 2 -33 14 -19 15 -18 45 4 17 12 32 22 35 22 3 0 42 22 87 50 45
27 86 47 91 44 15 -9 8 21 -13 55 l-20 34 -19 -31 c-24 -38 -152 -116 -178
-108 -23 8 -59 45 -63 66 -5 30 13 81 34 95 22 14 43 19 132 31 28 3 52 8 54
10 5 4 -39 74 -47 74 -4 0 -15 -12 -25 -25z"/>
<path d="M6158 2112 c-14 -20 -33 -52 -42 -71 -34 -64 -1 -127 88 -171 51 -24
93 -26 124 -4 26 18 61 83 55 101 -3 7 7 18 21 24 31 14 51 60 41 96 -5 21 -8
24 -15 12 -5 -7 -7 -22 -4 -31 6 -19 -21 -37 -48 -33 -9 2 -48 23 -86 48 -113
73 -106 72 -134 29z m120 -86 c40 -27 75 -52 77 -56 9 -15 -22 -54 -49 -61
-67 -18 -169 61 -159 125 5 34 29 59 47 49 6 -4 44 -29 84 -57z"/>
<path d="M5880 2003 c0 -4 -26 -35 -56 -68 -82 -88 -98 -125 -99 -215 0 -65 4
-80 26 -113 32 -46 91 -90 143 -107 104 -34 242 36 276 140 7 23 16 43 20 45
3 2 25 -14 48 -36 32 -31 42 -50 48 -86 8 -53 24 -40 24 20 0 50 -13 73 -69
125 -66 63 -80 69 -79 34 1 -41 -19 -106 -42 -135 -30 -38 -93 -65 -144 -62
-136 10 -253 165 -208 276 18 45 71 97 117 114 24 10 48 14 54 10 6 -3 11 -3
11 2 0 11 -70 66 -70 56z"/>
<path d="M890 1935 c0 -41 -16 -62 -110 -140 -78 -65 -80 -68 -64 -86 17 -19
18 -18 48 6 104 84 157 117 181 111 13 -3 29 -15 35 -25 19 -36 -14 -86 -100
-151 -25 -18 -49 -37 -53 -41 -10 -8 9 -49 23 -49 5 0 26 16 47 35 55 51 123
95 147 95 24 -1 50 -18 58 -41 12 -30 -20 -75 -95 -133 -74 -58 -75 -60 -60
-83 17 -26 10 -29 103 46 106 86 124 119 97 177 -19 40 -60 68 -87 61 -17 -4
-20 0 -18 32 1 43 -22 83 -58 100 -14 6 -22 16 -19 21 4 6 -12 29 -34 53 l-41
42 0 -30z"/>
<path d="M1204 1481 c-38 -23 -82 -79 -93 -118 -15 -53 26 -118 84 -133 11 -3
26 -17 32 -32 17 -34 33 -46 72 -53 23 -4 32 -2 29 6 -2 7 -12 13 -22 15 -50
7 -45 49 11 110 21 22 53 57 71 78 l33 38 -48 44 c-74 69 -113 79 -169 45z
m144 -58 c14 -22 11 -26 -58 -97 -73 -76 -89 -82 -117 -48 -30 37 2 117 61
153 41 25 94 21 114 -8z"/>
<path d="M5443 1353 c-68 -38 -96 -104 -62 -147 25 -32 53 -33 143 -5 75 24
96 17 96 -31 0 -41 -36 -66 -88 -61 -7 0 -21 15 -31 32 l-18 30 -22 -36 c-11
-20 -21 -38 -21 -39 0 -9 64 -28 95 -28 94 0 168 111 119 180 -20 29 -46 27
-124 -8 -56 -25 -68 -27 -85 -16 -41 27 -21 92 32 101 23 3 53 -23 53 -47 0
-30 14 -20 32 22 14 33 14 41 2 50 -24 21 -87 22 -121 3z"/>
<path d="M1511 1271 c12 -35 7 -47 -64 -145 -37 -52 -47 -73 -40 -85 18 -29
32 -22 72 37 54 80 95 114 135 110 37 -4 62 -42 53 -80 -4 -14 -31 -58 -61
-99 -49 -66 -53 -75 -38 -86 8 -7 19 -13 23 -13 3 0 26 26 50 58 24 31 46 59
49 62 13 12 30 63 30 89 0 51 -61 103 -113 95 -13 -2 -16 2 -12 16 4 13 -5 24
-39 44 -24 14 -47 26 -50 26 -3 0 0 -13 5 -29z"/>
<path d="M5163 1131 c-111 -65 -121 -129 -40 -233 52 -66 113 -68 179 -7 23
21 51 39 63 39 31 1 54 24 61 61 5 32 5 33 -10 14 -36 -47 -36 -47 -59 -32
-12 8 -47 54 -77 104 l-56 91 -61 -37z m87 -111 c50 -89 52 -112 9 -125 -81
-26 -171 132 -113 196 32 35 54 20 104 -71z"/>
<path d="M2444 1118 c20 -28 20 -51 0 -108 -9 -25 -17 -52 -19 -60 -2 -8 -29
-97 -59 -196 -31 -100 -56 -186 -56 -191 0 -6 28 -18 63 -28 34 -10 83 -29
108 -41 l46 -23 25 39 26 38 -68 -5 c-40 -3 -82 -1 -103 6 -33 11 -35 14 -27
39 5 15 27 86 49 157 22 72 56 181 76 244 19 63 32 118 28 121 -8 7 -84 30
-97 30 -4 0 0 -10 8 -22z"/>
<path d="M1819 1076 c23 -28 14 -72 -34 -160 -45 -84 -47 -90 -30 -103 11 -7
21 -13 24 -13 3 0 17 23 31 52 38 78 75 124 109 136 27 10 35 8 57 -12 37 -31
33 -59 -20 -155 -25 -46 -46 -87 -46 -91 0 -15 34 -21 46 -8 6 7 30 44 53 82
31 53 41 80 41 113 0 66 -45 105 -114 98 -31 -3 -35 -1 -25 11 15 18 14 18
-45 43 -57 25 -62 26 -47 7z"/>
<path d="M4553 1017 c-4 -8 -28 -27 -51 -42 -46 -30 -46 -31 4 -61 16 -9 16
-15 4 -60 -26 -102 -21 -152 23 -217 50 -74 189 -78 227 -6 11 19 10 20 -17 6
-55 -29 -95 -23 -144 20 -31 28 -59 90 -59 131 0 16 9 62 20 103 21 81 25 125
11 134 -6 3 -13 -1 -18 -8z"/>
<path d="M4878 983 c-15 -2 -41 -18 -58 -34 -87 -88 -14 -249 113 -249 48 0
99 38 115 84 14 43 8 63 -7 24 -12 -31 -52 -58 -88 -58 -40 0 -96 40 -121 87
-11 19 -8 23 34 42 24 12 63 29 84 37 45 18 48 24 23 47 -21 18 -57 26 -95 20z
m31 -42 c11 -7 1 -16 -37 -35 -61 -31 -63 -31 -55 -8 16 45 57 65 92 43z"/>
<path d="M4121 840 l-43 -29 25 -12 c30 -14 50 -57 78 -169 28 -111 27 -110
28 -147 1 -25 6 -33 19 -33 40 1 42 12 16 114 -28 107 -26 141 11 158 58 26
90 -9 125 -140 18 -65 26 -82 39 -80 21 4 22 63 3 141 -27 108 -109 151 -185
96 l-27 -20 -9 23 c-4 13 -14 47 -21 76 -6 28 -13 52 -13 52 -1 0 -22 -14 -46
-30z"/>
<path d="M2894 841 c-18 -12 -53 -69 -47 -75 15 -15 51 -3 87 29 22 19 37 35
35 35 -2 0 -18 4 -35 9 -17 5 -35 6 -40 2z"/>
<path d="M2751 767 c-5 -13 -16 -29 -25 -36 -23 -19 -20 -40 4 -34 24 6 25 -6
7 -92 -11 -53 -13 -87 -8 -132 2 -21 32 -43 59 -43 15 0 46 11 70 25 l43 24
-7 -34 c-3 -19 -2 -35 2 -36 5 0 16 -2 25 -4 27 -5 38 9 44 55 3 25 12 83 21
129 11 65 12 93 3 118 -11 36 -49 66 -49 39 0 -8 -11 -28 -25 -44 -25 -30 -25
-45 1 -35 12 4 18 -6 16 -28 -7 -53 -15 -105 -18 -111 -8 -13 -67 -38 -90 -38
-39 0 -44 27 -24 125 16 80 17 93 3 126 -18 46 -40 57 -52 26z"/>
<path d="M3485 781 c-3 -5 -19 -12 -35 -16 -28 -6 -43 -25 -20 -25 18 0 39
-44 44 -95 9 -70 9 -237 1 -257 -6 -15 -2 -18 25 -18 l32 0 -4 100 c-3 68 0
109 8 130 12 28 17 31 50 28 58 -5 74 -35 78 -148 3 -77 6 -96 19 -98 24 -5
34 25 36 105 2 77 -13 124 -53 155 -24 20 -87 23 -118 7 -11 -6 -21 -9 -23 -7
-2 2 -5 36 -6 76 -1 51 -6 72 -15 72 -7 0 -15 -4 -19 -9z"/>
<path d="M3072 713 c-24 -14 -41 -27 -39 -29 4 -4 58 -9 122 -13 17 -1 15 -4
-10 -20 -102 -63 -108 -185 -12 -253 21 -15 49 -22 101 -26 62 -4 74 -1 95 17
26 23 21 42 -7 24 -24 -14 -91 -9 -128 10 -78 40 -92 141 -28 204 25 25 79 40
131 36 28 -2 54 1 58 6 6 10 -25 20 -55 19 -49 -2 -139 15 -160 31 -26 18 -27
18 -68 -6z"/>
<path d="M3893 690 c-48 -24 -86 -92 -82 -144 3 -34 31 -82 63 -108 49 -39
138 -30 176 19 30 38 24 48 -11 19 -44 -37 -88 -35 -128 6 -53 55 -63 135 -20
174 19 17 71 23 76 8 12 -33 21 -36 47 -18 27 17 27 18 9 36 -30 29 -81 32
-130 8z"/>
</g>
</svg>
